<?xml version="1.0" encoding="utf-8"?>
<!-- Uploaded to: SVG Repo, www.svgrepo.com, Generator: SVG Repo Mixer Tools -->
<svg width="800px" height="800px" viewBox="0 0 24 24" fill="none" xmlns="http://www.w3.org/2000/svg">
<g id="style=stroke">
<g id="edit">
<path id="vector (Stroke)" fill-rule="evenodd" clip-rule="evenodd" d="M4.3367 16.071L3.94269 19.6888C3.9081 20.0064 4.17624 20.2746 4.49389 20.24L8.11161 19.846C8.45133 19.809 8.76823 19.6571 9.00986 19.4154L20.0011 8.42417C20.5869 7.83838 20.5869 6.88863 20.0011 6.30285L17.8798 4.18153C17.294 3.59574 16.3443 3.59574 15.7585 4.18153L4.76722 15.1728C4.52559 15.4144 4.3737 15.7313 4.3367 16.071ZM18.9405 3.12087L21.0618 5.24219C22.2334 6.41376 22.2334 8.31325 21.0618 9.48483L10.0705 20.4761C9.58725 20.9594 8.95345 21.2631 8.27401 21.3371L4.65629 21.7311C3.38571 21.8695 2.31313 20.7969 2.45151 19.5264L2.84552 15.9086C2.91952 15.2292 3.22329 14.5954 3.70656 14.1121L14.6978 3.12087C15.8694 1.94929 17.7689 1.94929 18.9405 3.12087Z" fill="#000000"/>
<path id="vector (Stroke)_2" fill-rule="evenodd" clip-rule="evenodd" d="M20.0011 6.30285L17.8798 4.18153C17.294 3.59574 16.3443 3.59574 15.7585 4.18153L14.4857 5.45432L18.7283 9.69696L20.0011 8.42417C20.5869 7.83838 20.5869 6.88863 20.0011 6.30285ZM18.7283 11.8183L12.3644 5.45432L14.6978 3.12087C15.8694 1.94929 17.7689 1.94929 18.9405 3.12087L21.0618 5.24219C22.2334 6.41376 22.2334 8.31326 21.0618 9.48483L18.7283 11.8183Z" fill="#000000"/>
</g>
</g>
</svg>