<?xml version="1.0" encoding="utf-8"?>

<!-- Uploaded to: SVG Repo, www.svgrepo.com, Generator: SVG Repo Mixer Tools -->
<svg fill="#000000" height="800px" width="800px" version="1.1" id="Icons" xmlns="http://www.w3.org/2000/svg" xmlns:xlink="http://www.w3.org/1999/xlink" 
	 viewBox="0 0 32 32" xml:space="preserve">
<g>
	<path d="M20,14c-0.3,0-0.5-0.1-0.7-0.3l-4-4c-0.4-0.4-0.4-1,0-1.4l4-4c0.4-0.4,1-0.4,1.4,0s0.4,1,0,1.4L17.4,9l3.3,3.3
		c0.4,0.4,0.4,1,0,1.4C20.5,13.9,20.3,14,20,14z"/>
</g>
<g>
	<path d="M22,24H10c-4.4,0-8-3.6-8-8s3.6-8,8-8h2c0.6,0,1,0.4,1,1s-0.4,1-1,1h-2c-3.3,0-6,2.7-6,6s2.7,6,6,6h12c3.3,0,6-2.7,6-6
		s-2.7-6-6-6h-6c-0.6,0-1-0.4-1-1s0.4-1,1-1h6c4.4,0,8,3.6,8,8S26.4,24,22,24z"/>
</g>
</svg>